<svg width="198" height="72" viewBox="0 0 198 72" fill="none" xmlns="http://www.w3.org/2000/svg">
<path fill-rule="evenodd" clip-rule="evenodd" d="M49.4093 49.0289V14.6017H67.4256V18.9175H53.1401V29.5021H65.9696V33.8192H53.1401V44.6095H68.4267V48.9254H49.4093V49.0289ZM87.3529 49.0289L81.1651 39.8833L74.9772 49.0289H70.6113L79.0727 36.7995L70.1553 24.1587H75.0695L81.1651 33.6147L87.3529 24.1587H92.1748L83.7134 36.7995L91.721 49.0289H87.3529ZM97.7264 45.329V62.2858H93.9957V36.9018C93.9957 30.4274 98.3627 23.5427 105.188 23.5427C112.102 23.5427 117.289 28.4758 117.289 36.5938C117.289 44.5072 112.012 49.9541 106.007 49.9541C103.094 49.9541 99.1824 48.5151 97.7264 45.329ZM113.377 36.5938C113.377 31.0446 110.192 27.7575 104.551 28.0643C101.821 28.1678 97.6362 30.4274 97.9989 38.342C98.0901 40.9109 100.456 45.7393 105.643 45.7393C110.101 45.7393 113.377 42.8625 113.377 36.5938ZM120.474 49.0289V24.1587H124.205V26.831C126.025 24.4667 128.845 23.6449 131.848 23.6449V28.1678C131.393 28.0643 126.934 27.4471 124.205 34.0249V49.1323H120.474V49.0289ZM132.849 36.595C132.849 29.3998 137.398 23.5427 143.676 23.5427C151.503 23.5427 154.414 29.401 154.414 36.9018V38.9581H136.944C137.216 43.6855 140.947 46.1508 144.405 46.0486C146.952 45.9463 148.682 45.1245 150.503 43.0694L152.959 45.9475C150.684 48.4128 147.772 50.0564 144.224 50.0564C137.581 49.9541 132.849 44.405 132.849 36.595ZM143.404 27.7575C139.856 27.7575 137.126 31.2492 136.944 35.0537H150.502C150.502 31.3526 148.137 27.7575 143.404 27.7575ZM156.326 45.5348L159.054 42.7602C158.964 42.7602 160.42 44.405 160.603 44.5072C161.239 45.1245 161.875 45.5348 162.695 45.7405C165.06 46.46 169.337 46.2543 169.701 42.5545C169.883 40.4994 168.518 39.3684 166.972 38.6489C164.97 37.8283 162.785 37.519 160.784 36.4915C158.508 35.3617 157.054 33.4089 157.054 30.532C157.054 23.0277 166.516 21.7956 170.793 25.2897C170.975 25.4954 173.067 27.6528 172.977 27.6528L170.247 30.1206C168.883 28.27 167.608 27.3448 164.697 27.3448C163.241 27.3448 161.239 28.0643 160.875 29.8113C160.329 32.2779 162.785 33.2032 164.423 33.7169C166.608 34.333 168.973 34.7445 170.884 36.08C173.523 37.9305 174.161 41.9372 173.159 45.021C172.066 48.4128 168.79 49.7484 165.879 49.8495C162.422 50.0564 159.419 48.8231 156.962 46.0497C156.78 46.0497 156.326 45.5348 156.326 45.5348ZM175.524 45.5348L178.255 42.7602C178.164 42.7602 179.619 44.405 179.801 44.5072C180.438 45.1245 181.076 45.5348 181.894 45.7405C184.258 46.46 188.537 46.2543 188.901 42.5545C189.081 40.4994 187.718 39.3684 186.17 38.6489C184.168 37.8283 181.985 37.519 179.984 36.4915C177.709 35.3617 176.253 33.4089 176.253 30.532C176.253 23.0277 185.717 21.7956 189.992 25.2897C190.175 25.4954 192.267 27.6528 192.177 27.6528L189.447 30.1206C188.081 28.27 186.807 27.3448 183.896 27.3448C182.44 27.3448 180.439 28.0643 180.074 29.8113C179.529 32.2779 181.985 33.2032 183.622 33.7169C185.807 34.333 188.174 34.7445 190.084 36.08C192.722 37.9305 193.36 41.9372 192.358 45.021C191.266 48.4128 187.991 49.7484 185.078 49.8495C181.621 50.0564 178.619 48.8231 176.162 46.0497C175.979 46.0497 175.526 45.5348 175.526 45.5348H175.524ZM193.268 24.1587V21.4864H192.45V20.9726H194.633V21.4864H193.814V24.1587H193.268ZM197.363 24.1587V21.6933L196.544 24.1587H196.362L195.543 21.6933V24.1587H195.088V20.9726H195.817L196.544 23.1323L197.273 20.9726H198V24.1587H197.363ZM24.1129 49.0289L21.3833 40.8074H6.64277L3.91207 49.0289H0L11.8295 14.6017H16.1053L27.8447 49.0289H24.1129ZM13.8306 19.5348L8.2812 36.595H19.8361L13.8306 19.5348ZM30.3008 49.0289H34.1227V14.6028H30.3008V49.0289ZM39.8545 49.0289H43.6764V24.6737H39.8545V49.0289ZM47.316 16.7602V16.3487C44.405 16.2464 42.038 13.5741 41.9479 10.2858H41.4017C41.3105 13.5741 38.9446 16.2464 36.0336 16.3487V16.7602C38.9446 16.8625 41.3105 19.5348 41.4017 22.8231H41.9479C42.038 19.5348 44.405 16.8625 47.316 16.7602Z" fill="white"/>
</svg>
