<svg width="40" height="40" viewBox="0 0 40 40" fill="none" xmlns="http://www.w3.org/2000/svg">
<path d="M19.9808 4.00344C19.9482 4.00938 19.9156 4.0183 19.886 4.02722C19.5332 4.10748 19.2842 4.42556 19.293 4.78823V9.35428C19.2901 9.62777 19.4324 9.88342 19.6696 10.0231C19.9067 10.1599 20.1972 10.1599 20.4344 10.0231C20.6716 9.88342 20.8139 9.62777 20.8109 9.35428V4.78823C20.8198 4.56825 20.7309 4.35719 20.5738 4.20855C20.4137 4.05695 20.1972 3.98263 19.9808 4.00344ZM9.166 8.47437C8.8814 8.5249 8.65313 8.73299 8.57309 9.00945C8.49304 9.28888 8.57605 9.58615 8.78654 9.78235L12.012 13.0166C12.1958 13.2426 12.4893 13.3466 12.7739 13.2812C13.0555 13.2158 13.2779 12.9929 13.3431 12.7105C13.4083 12.4251 13.3046 12.1308 13.0793 11.9465L9.85379 8.71218C9.69667 8.54274 9.46839 8.45653 9.23715 8.47437C9.21344 8.47437 9.18972 8.47437 9.166 8.47437ZM30.7008 8.47437C30.5288 8.49815 30.3688 8.58435 30.2502 8.71218L27.0247 11.9465C26.7994 12.1308 26.6956 12.4251 26.7609 12.7105C26.8261 12.9929 27.0484 13.2158 27.3301 13.2812C27.6147 13.3466 27.9081 13.2426 28.092 13.0166L31.3174 9.78235C31.5546 9.55643 31.6228 9.20267 31.4834 8.90541C31.3411 8.60516 31.0269 8.43275 30.7008 8.47437ZM19.9808 12.3983C19.9571 12.4043 19.9334 12.4132 19.9097 12.4221C19.8622 12.4251 19.8148 12.434 19.7674 12.4459C19.7585 12.4548 19.7526 12.4607 19.7437 12.4697C15.7178 12.6421 12.4626 15.9299 12.4626 20.0084C12.4626 24.1969 15.8749 27.6185 20.052 27.6185C24.2291 27.6185 27.6413 24.1969 27.6413 20.0084C27.6413 15.9447 24.4129 12.6688 20.4077 12.4697C20.3811 12.4697 20.3633 12.4459 20.3366 12.4459C20.2595 12.4162 20.1795 12.4013 20.0994 12.3983C20.0846 12.3983 20.0668 12.3983 20.052 12.3983C20.0283 12.3983 20.0045 12.3983 19.9808 12.3983ZM20.0045 13.9203C20.0194 13.9203 20.0372 13.9203 20.052 13.9203C20.0757 13.9203 20.0994 13.9203 20.1231 13.9203C23.4435 13.959 26.1235 16.6701 26.1235 20.0084C26.1235 23.3735 23.4079 26.0965 20.052 26.0965C16.699 26.0965 13.9805 23.3735 13.9805 20.0084C13.9805 16.6612 16.6723 13.9471 20.0045 13.9203ZM4.65983 19.2474C4.24182 19.3069 3.94832 19.6963 4.00762 20.1154C4.06691 20.5346 4.45527 20.8289 4.87328 20.7694H9.42689C9.69963 20.7724 9.95459 20.6297 10.0939 20.3919C10.2303 20.1541 10.2303 19.8627 10.0939 19.6249C9.95459 19.3871 9.69963 19.2444 9.42689 19.2474H4.87328C4.84956 19.2474 4.82584 19.2474 4.80213 19.2474C4.77841 19.2474 4.75469 19.2474 4.73098 19.2474C4.70726 19.2474 4.68354 19.2474 4.65983 19.2474ZM30.4636 19.2474C30.0456 19.3069 29.7521 19.6963 29.8114 20.1154C29.8707 20.5346 30.2591 20.8289 30.6771 20.7694H35.2307C35.5034 20.7724 35.7584 20.6297 35.8977 20.3919C36.0341 20.1541 36.0341 19.8627 35.8977 19.6249C35.7584 19.3871 35.5034 19.2444 35.2307 19.2474H30.6771C30.6534 19.2474 30.6296 19.2474 30.6059 19.2474C30.5822 19.2474 30.5585 19.2474 30.5348 19.2474C30.5111 19.2474 30.4873 19.2474 30.4636 19.2474ZM12.4626 26.7624C12.2907 26.7861 12.1306 26.8724 12.012 27.0002L8.78654 30.2345C8.56123 30.4188 8.45747 30.7131 8.52269 30.9984C8.58791 31.2809 8.81025 31.5038 9.09189 31.5692C9.37649 31.6346 9.66998 31.5306 9.85379 31.3046L13.0793 28.0703C13.3046 27.8533 13.3728 27.5174 13.2512 27.2291C13.1326 26.9407 12.8451 26.7564 12.5338 26.7624C12.5101 26.7624 12.4863 26.7624 12.4626 26.7624ZM27.4042 26.7624C27.1196 26.8129 26.8913 27.021 26.8113 27.2974C26.7312 27.5769 26.8142 27.8741 27.0247 28.0703L30.2502 31.3046C30.434 31.5306 30.7275 31.6346 31.0121 31.5692C31.2937 31.5038 31.5161 31.2809 31.5813 30.9984C31.6465 30.7131 31.5427 30.4188 31.3174 30.2345L28.092 27.0002C27.9497 26.8486 27.754 26.7653 27.5465 26.7624C27.5228 26.7624 27.499 26.7624 27.4753 26.7624C27.4516 26.7624 27.4279 26.7624 27.4042 26.7624ZM19.9808 29.8777C19.9482 29.8837 19.9156 29.8926 19.886 29.9015C19.5332 29.9818 19.2842 30.2999 19.293 30.6625V35.2286C19.2901 35.5021 19.4324 35.7577 19.6696 35.8974C19.9067 36.0342 20.1972 36.0342 20.4344 35.8974C20.6716 35.7577 20.8139 35.5021 20.8109 35.2286V30.6625C20.8198 30.4426 20.7309 30.2315 20.5738 30.0829C20.4137 29.9313 20.1972 29.8569 19.9808 29.8777Z" fill="white"/>
</svg>
