<svg width="198" height="72" viewBox="0 0 198 72" fill="none" xmlns="http://www.w3.org/2000/svg">
<path fill-rule="evenodd" clip-rule="evenodd" d="M81.8282 33.7799C79.3607 32.3987 76.7677 31.5799 74.2379 30.4643C73.2023 30.0076 72.1785 29.4684 71.1695 28.8811C69.9768 28.1866 69.1082 26.9406 69.119 24.8136C69.1299 22.5452 69.7742 20.6777 71.0935 19.6476C72.5629 18.4994 74.1549 18.6315 75.7459 18.8941C78.4288 19.34 79.5909 21.902 80.1038 24.7841C80.1819 25.2238 80.2698 25.6588 80.3469 26.0674H86.5271C86.8611 21.2681 85.0705 16.7655 82.5911 14.1725C81.0871 12.5986 79.4012 11.8124 77.6076 11.3028C74.5749 10.4405 71.6557 10.7 68.7732 12.4215C65.2344 14.536 62.3005 19.542 62.6829 26.7386C62.8381 29.6595 63.6138 32.0071 64.8747 34.0223C66.4163 36.4833 68.4332 37.6283 70.463 38.6025C72.552 39.6077 74.7122 40.254 76.7953 41.2872C77.9318 41.8497 79.086 42.6498 80.0336 43.7607C81.765 45.7898 81.7057 49.3772 80.0514 51.5726C79.2628 52.6197 78.3517 53.2443 77.322 53.4789C75.8892 53.8036 74.4938 54.0165 73.0234 53.5395C70.5569 52.7378 68.5232 50.3638 68.1318 46.5495C68.0755 45.9949 67.9757 44.9259 67.9757 44.9259C65.8866 44.9259 63.5614 44.9104 61.5781 44.9104C61.5781 44.9104 61.6226 46.1596 61.6394 46.475C61.9862 52.7953 64.2127 57.0197 67.7573 59.619C69.6606 61.0127 71.716 61.5705 73.8317 61.6668C76.7953 61.802 79.665 61.4182 82.4053 59.3782C86.7978 56.1062 88.6784 48.5724 87.2188 41.8248C86.3334 37.7293 84.3106 35.1689 81.8282 33.7799Z" fill="white"/>
<path fill-rule="evenodd" clip-rule="evenodd" d="M52.4892 40.1163C52.1176 45.1331 50.8261 49.4663 47.8981 52.193C46.3377 53.6472 44.6222 53.7234 42.9057 53.6006C38.7632 53.2992 36.2018 48.0944 35.43 42.6627C35.3055 41.7865 35.1346 40.9133 35.0891 40.0246C35.0298 38.8671 34.9765 37.7221 34.9765 36.5568C34.9468 33.1978 35.2739 29.9956 36.1821 26.9644C37.8244 21.4784 40.6961 19.0422 44.4868 19.3281C48.322 19.6171 50.8745 24.0917 51.84 28.6766C52.6345 32.4551 52.7728 36.2865 52.4892 40.1163ZM56.0418 21.1708C53.1226 14.42 48.9653 11.3469 43.0016 11.3391C41.3365 11.1589 38.9984 12.0724 36.7829 13.7597C34.2778 15.6692 32.4358 18.7097 31.0257 22.4261C29.3754 26.7795 28.7914 31.6161 28.7469 36.563C28.7153 39.978 29.0503 43.393 29.8379 46.665C30.6492 50.0365 31.7787 53.0662 33.4477 55.5318C35.433 58.4652 37.8057 60.2255 40.4847 61.0583C44.553 62.3229 48.4149 61.5337 51.9674 58.1342C55.2374 55.0036 57.1811 50.2571 58.1604 44.5272C58.8571 40.4472 58.9698 36.3082 58.5883 32.1009C58.2296 28.1514 57.4628 24.4583 56.0418 21.1708Z" fill="white"/>
<path fill-rule="evenodd" clip-rule="evenodd" d="M97.9632 52.0008V39.3585H110.908V31.7051H97.9632V20.6181C103.24 20.5606 108.693 20.6383 114.071 20.5746V12.1086H91.5845V60.5444H114.112L114.078 52.0008H97.9632Z" fill="white"/>
<path fill-rule="evenodd" clip-rule="evenodd" d="M15.9247 12.083C10.9294 11.8702 5.92915 11.9898 0.930872 11.9805H0V20.2072H1.30737C5.52893 20.2072 9.75148 20.173 13.973 20.2367C14.726 20.2476 15.5453 20.4294 16.2162 20.9235C18.4654 22.5828 19.167 26.5975 18.2401 29.8167C17.4525 32.5558 15.9455 33.805 13.98 33.7801C9.7248 33.7227 5.46865 33.7584 1.21349 33.7662H0V60.7426H6.12975C6.12975 60.7426 6.12777 59.3862 6.12876 58.7694C6.13963 53.7915 6.08232 48.8011 6.12975 43.8231C6.12975 43.8231 6.12283 41.2269 6.12975 41.6417C6.12975 41.6417 6.60804 41.6433 6.73452 41.6417C8.39963 41.6262 11.0668 41.6184 12.9068 41.6153C13.8673 45.5368 15.1974 51.0119 16.1253 54.7687C16.6214 56.7761 17.1965 58.8829 17.6679 60.7426H23.7621C22.1839 54.3026 20.5168 47.5069 18.8982 40.9006C19.4437 40.4097 19.6631 40.2683 20.001 39.9731C21.925 38.292 23.2452 35.7207 24.102 32.5403C25.3313 27.9849 25.1228 23.5476 23.5279 19.3014C21.8252 14.7694 19.246 12.2244 15.9247 12.083Z" fill="white"/>
<path fill-rule="evenodd" clip-rule="evenodd" d="M134.316 34.9877C133.989 34.9877 133.256 35.011 133.256 35.011V39.3411H143.511C143.396 43.9912 142.588 47.9298 140.793 51.3075C138.758 55.1342 136.199 57.5502 132.99 57.8112C131.701 57.9153 130.37 57.6418 129.099 57.2301C125.923 56.2031 123.732 53.0165 122.096 48.7999C121.057 46.1213 120.588 43.174 120.628 40.0309C120.682 35.7102 120.304 31.3645 121.146 27.0997C122.564 19.9249 126.068 14.9655 130.666 14.1203C134.755 13.3699 138.31 15.5823 140.932 20.7872C141.635 22.1855 142.196 23.7578 142.854 25.327H145.423C145.314 24.6791 145.282 24.3155 145.194 23.9862C144.553 21.5842 143.746 19.336 142.621 17.4048C139.959 12.837 136.756 10.0528 132.718 10.0388C132.009 10.0357 131.291 9.93785 130.591 10.0652C129.626 10.2408 128.627 10.3869 127.726 10.9042C124.6 12.6987 122.037 15.6942 120.299 20.2309C119.126 23.2932 118.176 26.4922 118.134 30.1729C118.102 32.9788 118.004 35.7847 118.029 38.5876C118.057 41.8146 118.185 45.0291 119.073 48.0417C121.336 55.7153 124.893 60.7849 130.403 61.8119C133.309 62.3526 136.152 61.7715 138.734 59.4969C141.966 56.6506 144.249 52.4821 145.438 46.8966C146.114 43.724 146.174 40.4629 146.149 37.1753C146.149 36.3565 146.155 35.6294 146.169 34.9815C142.668 34.9768 137.547 34.9784 134.316 34.9877Z" fill="white"/>
<path fill-rule="evenodd" clip-rule="evenodd" d="M197.965 56.683C196.125 56.683 183.315 56.6504 181.379 56.6333V11.384L178.651 11.426C178.634 12.0537 178.65 46.0201 178.651 60.7412C184.13 60.7443 198 60.7427 198 60.7427L197.965 56.683Z" fill="white"/>
<path fill-rule="evenodd" clip-rule="evenodd" d="M155.941 38.8565C157.716 31.3833 159.567 23.5979 161.346 16.1092C161.446 16.1077 161.711 16.1061 161.811 16.1046C161.811 16.1046 164.753 28.5106 165.355 31.0819C165.943 33.5927 166.604 36.3582 167.184 38.8565H155.941ZM166.984 26.135C166.004 21.9977 164.474 15.5173 163.391 10.8019C162.075 10.8019 160.591 10.805 159.994 10.805C156.106 26.6788 151.781 44.3829 147.852 60.7431H150.707C152.04 55.08 154.511 44.7247 154.853 43.373H168.271C169.356 47.9983 171.114 55.2276 172.406 60.7431H175.161C174.35 57.2225 172.99 51.3884 172.448 49.1077C170.625 41.4496 168.8 33.7946 166.984 26.135Z" fill="white"/>
</svg>
