<svg width="198" height="72" viewBox="0 0 198 72" fill="none" xmlns="http://www.w3.org/2000/svg">
<path fill-rule="evenodd" clip-rule="evenodd" d="M18.1094 22.3603V10.9946H40.7061L46.8763 41.3987L53.125 10.9946H60.0168L50.0012 60.0111H43.831L36.0586 22.3603H30.2089V60.0111H23.5591V22.3603H18.1094Z" fill="white"/>
<path fill-rule="evenodd" clip-rule="evenodd" d="M6.9713 33.4425V20.799C14.4243 19.9453 14.2641 34.1518 6.9713 33.4425ZM12.9823 60.0111H20.5945L14.1834 40.406C22.1161 35.5741 19.9525 10.7094 11.1392 10.9946H0V60.0111H6.9713V41.8264L12.9823 60.0111ZM138.864 10.9928H146.717L154.169 60.0111H148.638L147.356 51.3456H138.063L136.78 60.0111H131.412L138.865 10.9946L138.864 10.9928ZM145.995 42.3932H139.425L142.71 20.6564L145.995 42.3932Z" fill="white"/>
<path fill-rule="evenodd" clip-rule="evenodd" d="M164.425 42.9616V32.4497H176.685V49.4973C174.762 53.9031 173.48 57.3126 170.915 59.4442C169.233 60.8629 166.508 62 164.024 62C160.98 62 158.495 61.0055 156.571 59.0183C154.649 56.8848 153.448 54.1865 152.405 50.2066C151.364 46.0877 151.123 41.3985 151.123 36.1408C151.123 30.6015 151.524 25.6289 152.726 21.6508C153.847 17.5302 155.531 14.5466 157.774 12.4132C159.537 10.7093 161.38 10 164.344 10C167.228 10 169.312 10.426 170.755 11.4205C172.197 12.4132 173.319 13.9781 174.28 16.1097C175.162 18.2413 175.883 20.9397 176.364 24.2084L169.633 26.9068C169.312 24.9177 168.832 23.4973 168.031 22.5009C167.309 21.5101 166.348 20.7989 165.226 20.5137C162.903 19.9452 161.06 22.2176 160.018 24.4918C158.976 26.9049 158.495 30.5996 158.495 35.8592C158.495 41.2578 158.976 45.9451 160.018 48.3601C161.06 50.6362 162.582 51.9141 164.425 51.9141C165.307 51.9141 166.187 51.6289 166.989 51.0585C167.79 50.6362 168.673 49.7824 169.713 48.5027V42.9634H164.425V42.9616ZM186.541 22.0768H182.935V49.0713H186.541C193.271 49.0713 193.431 22.0768 186.541 22.0768ZM185.499 10.9945H176.685V60.1536H185.499C202.006 60.1536 202.327 10.9945 185.499 10.9945Z" fill="white"/>
<path fill-rule="evenodd" clip-rule="evenodd" d="M53.1261 60.011H136.059V10.9927H53.124V60.011H53.1261ZM54.7283 57.4515H134.536V13.6947H54.7294V57.4552L54.7283 57.4515Z" fill="white"/>
<path fill-rule="evenodd" clip-rule="evenodd" d="M72.9983 48.0786H59.0557V22.7861H72.5982V27.7586H62.8225V32.8738H71.8757V36.4259H62.8225V43.8153H72.9983V48.0786ZM110.818 48.0786H106.571L106.492 41.2577C106.492 37.7056 104.008 37.8464 102.405 37.8464H99.7608V48.0786H95.3542V22.7842H105.29C111.781 22.7842 113.303 32.1627 108.495 35.574C109.697 36.2815 110.738 38.415 110.738 41.1133L110.818 48.0767V48.0786ZM99.6006 34.0091H103.767C104.89 34.0091 105.771 33.7239 106.252 33.298C106.732 32.7312 107.053 31.8775 107.053 30.7404C107.053 28.6106 106.011 27.4735 104.008 27.4735H99.6006V34.0091ZM122.277 22.3601C123.559 22.3601 124.761 22.6453 125.803 23.3546C126.925 23.925 127.886 24.7751 128.687 25.914C129.489 27.0475 130.05 28.4698 130.53 30.0329C130.931 31.7367 131.171 33.4424 131.171 35.4332C131.171 37.2797 131.012 39.1261 130.53 40.6892C130.13 42.2541 129.489 43.6727 128.687 44.8098C127.886 45.9451 126.925 46.9396 125.884 47.51C124.761 48.0768 123.56 48.5027 122.277 48.5027C120.995 48.5027 119.713 48.0786 118.671 47.51C117.55 46.9396 116.589 45.9451 115.868 44.8098C115.066 43.6727 114.424 42.393 114.025 40.6892C113.543 39.1261 113.302 37.4204 113.302 35.4332C113.302 33.4424 113.543 31.5941 114.025 30.0329C114.424 28.4698 115.066 27.0493 115.868 25.914C116.669 24.7751 117.63 23.925 118.671 23.3546C119.794 22.6453 120.995 22.3601 122.277 22.3601ZM122.277 43.9561C122.998 43.9561 123.72 43.8153 124.441 43.3894C125.081 42.9616 125.643 42.393 126.123 41.6837C126.604 40.9744 126.924 40.1206 127.245 38.9853C127.486 37.9908 127.646 36.7111 127.646 35.4332C127.646 34.0109 127.486 32.8738 127.245 31.7367C126.924 30.7422 126.604 29.8903 126.123 29.181C125.643 28.468 125.081 27.9012 124.441 27.4753C123.72 27.0493 123.078 26.9067 122.277 26.9067C121.555 26.9067 120.835 27.0493 120.114 27.4735C119.474 27.9012 118.912 28.4698 118.432 29.181C117.951 29.8903 117.55 30.7422 117.309 31.8793C117.069 32.8738 116.909 34.0109 116.909 35.4332C116.909 36.7111 117.069 37.9908 117.309 38.9853C117.55 40.1206 117.95 40.9744 118.432 41.6837C118.912 42.393 119.473 42.9634 120.114 43.3894C120.755 43.8153 121.476 43.9561 122.277 43.9561ZM77.0855 22.7861H80.6911V40.6892C80.8503 45.6618 87.9022 45.5192 87.7409 40.6892V22.7842H91.668L91.5873 41.1133C91.668 50.4917 77.1641 50.4917 77.0845 41.1133L77.0855 22.7861Z" fill="white"/>
</svg>
